<mxfile host="app.diagrams.net" agent="Mozilla/5.0 (X11; Linux x86_64; rv:137.0) Gecko/20100101 Firefox/137.0" version="26.2.13">
  <diagram name="Page-1" id="YUJzqn_jEr0MLVdi_I88">
    <mxGraphModel dx="398" dy="220" grid="1" gridSize="10" guides="1" tooltips="1" connect="1" arrows="1" fold="1" page="1" pageScale="1" pageWidth="850" pageHeight="1100" math="0" shadow="0">
      <root>
        <mxCell id="0" />
        <mxCell id="1" parent="0" />
        <mxCell id="RyVw2b3Zrki53a3tJyPH-2" value="&lt;font face=&quot;Courier New&quot;&gt;rseq_cs&lt;/font&gt;" style="rounded=0;whiteSpace=wrap;html=1;" vertex="1" parent="1">
          <mxGeometry x="360" y="340" width="80" height="20" as="geometry" />
        </mxCell>
        <mxCell id="RyVw2b3Zrki53a3tJyPH-3" value="&lt;font face=&quot;Courier New&quot;&gt;flags&lt;/font&gt;" style="rounded=0;whiteSpace=wrap;html=1;" vertex="1" parent="1">
          <mxGeometry x="440" y="340" width="40" height="20" as="geometry" />
        </mxCell>
        <mxCell id="RyVw2b3Zrki53a3tJyPH-4" value="&lt;font style=&quot;font-size: 8px;&quot;&gt;48&lt;/font&gt;" style="rounded=0;whiteSpace=wrap;html=1;" vertex="1" parent="1">
          <mxGeometry x="390" y="360" width="10" height="10" as="geometry" />
        </mxCell>
        <mxCell id="RyVw2b3Zrki53a3tJyPH-5" value="&lt;font style=&quot;font-size: 8px;&quot;&gt;B8&lt;/font&gt;" style="rounded=0;whiteSpace=wrap;html=1;" vertex="1" parent="1">
          <mxGeometry x="400" y="360" width="10" height="10" as="geometry" />
        </mxCell>
        <mxCell id="RyVw2b3Zrki53a3tJyPH-6" value="&lt;font style=&quot;font-size: 8px;&quot;&gt;X&lt;/font&gt;" style="rounded=0;whiteSpace=wrap;html=1;" vertex="1" parent="1">
          <mxGeometry x="410" y="360" width="10" height="10" as="geometry" />
        </mxCell>
        <mxCell id="RyVw2b3Zrki53a3tJyPH-7" value="&lt;font style=&quot;font-size: 8px;&quot;&gt;0&lt;/font&gt;" style="rounded=0;whiteSpace=wrap;html=1;" vertex="1" parent="1">
          <mxGeometry x="420" y="360" width="10" height="10" as="geometry" />
        </mxCell>
        <mxCell id="RyVw2b3Zrki53a3tJyPH-8" value="&lt;font style=&quot;font-size: 8px;&quot;&gt;0&lt;/font&gt;" style="rounded=0;whiteSpace=wrap;html=1;" vertex="1" parent="1">
          <mxGeometry x="430" y="360" width="10" height="10" as="geometry" />
        </mxCell>
        <mxCell id="RyVw2b3Zrki53a3tJyPH-9" value="&lt;font style=&quot;font-size: 8px;&quot;&gt;0&lt;/font&gt;" style="rounded=0;whiteSpace=wrap;html=1;" vertex="1" parent="1">
          <mxGeometry x="440" y="360" width="10" height="10" as="geometry" />
        </mxCell>
        <mxCell id="RyVw2b3Zrki53a3tJyPH-10" value="&lt;font style=&quot;font-size: 8px;&quot;&gt;0&lt;/font&gt;" style="rounded=0;whiteSpace=wrap;html=1;" vertex="1" parent="1">
          <mxGeometry x="450" y="360" width="10" height="10" as="geometry" />
        </mxCell>
        <mxCell id="RyVw2b3Zrki53a3tJyPH-11" value="&lt;font style=&quot;font-size: 8px;&quot;&gt;0&lt;/font&gt;" style="rounded=0;whiteSpace=wrap;html=1;" vertex="1" parent="1">
          <mxGeometry x="460" y="360" width="10" height="10" as="geometry" />
        </mxCell>
        <mxCell id="RyVw2b3Zrki53a3tJyPH-12" value="&lt;font style=&quot;font-size: 8px;&quot;&gt;0&lt;/font&gt;" style="rounded=0;whiteSpace=wrap;html=1;" vertex="1" parent="1">
          <mxGeometry x="470" y="360" width="10" height="10" as="geometry" />
        </mxCell>
        <mxCell id="RyVw2b3Zrki53a3tJyPH-13" value="&lt;font style=&quot;font-size: 8px;&quot;&gt;X&lt;/font&gt;" style="rounded=0;whiteSpace=wrap;html=1;" vertex="1" parent="1">
          <mxGeometry x="480" y="360" width="10" height="10" as="geometry" />
        </mxCell>
        <mxCell id="RyVw2b3Zrki53a3tJyPH-14" value="&lt;font style=&quot;font-size: 8px;&quot;&gt;5&lt;/font&gt;&lt;font style=&quot;font-size: 8px;&quot;&gt;0&lt;/font&gt;" style="rounded=0;whiteSpace=wrap;html=1;" vertex="1" parent="1">
          <mxGeometry x="490" y="360" width="10" height="10" as="geometry" />
        </mxCell>
        <mxCell id="RyVw2b3Zrki53a3tJyPH-15" value="&lt;font style=&quot;font-size: 8px;&quot;&gt;X&lt;/font&gt;" style="rounded=0;whiteSpace=wrap;html=1;" vertex="1" parent="1">
          <mxGeometry x="380" y="360" width="10" height="10" as="geometry" />
        </mxCell>
        <mxCell id="RyVw2b3Zrki53a3tJyPH-16" value="&lt;font style=&quot;font-size: 8px;&quot;&gt;X&lt;/font&gt;" style="rounded=0;whiteSpace=wrap;html=1;" vertex="1" parent="1">
          <mxGeometry x="370" y="360" width="10" height="10" as="geometry" />
        </mxCell>
        <mxCell id="RyVw2b3Zrki53a3tJyPH-17" value="&lt;font style=&quot;font-size: 8px;&quot;&gt;X&lt;/font&gt;" style="rounded=0;whiteSpace=wrap;html=1;" vertex="1" parent="1">
          <mxGeometry x="360" y="360" width="10" height="10" as="geometry" />
        </mxCell>
        <mxCell id="RyVw2b3Zrki53a3tJyPH-18" value="&lt;font style=&quot;font-size: 8px;&quot;&gt;X&lt;/font&gt;" style="rounded=0;whiteSpace=wrap;html=1;" vertex="1" parent="1">
          <mxGeometry x="350" y="360" width="10" height="10" as="geometry" />
        </mxCell>
        <mxCell id="RyVw2b3Zrki53a3tJyPH-19" value="&lt;font style=&quot;font-size: 8px;&quot;&gt;68&lt;/font&gt;" style="rounded=0;whiteSpace=wrap;html=1;" vertex="1" parent="1">
          <mxGeometry x="340" y="360" width="10" height="10" as="geometry" />
        </mxCell>
        <mxCell id="RyVw2b3Zrki53a3tJyPH-20" value="&lt;font style=&quot;font-size: 8px;&quot;&gt;Fields:&lt;/font&gt;" style="text;html=1;align=right;verticalAlign=middle;whiteSpace=wrap;rounded=0;" vertex="1" parent="1">
          <mxGeometry x="270" y="340" width="60" height="15" as="geometry" />
        </mxCell>
        <mxCell id="RyVw2b3Zrki53a3tJyPH-21" value="&lt;font style=&quot;font-size: 8px;&quot;&gt;Bytes:&lt;/font&gt;" style="text;html=1;align=right;verticalAlign=middle;whiteSpace=wrap;rounded=0;" vertex="1" parent="1">
          <mxGeometry x="270" y="357.5" width="60" height="15" as="geometry" />
        </mxCell>
        <mxCell id="RyVw2b3Zrki53a3tJyPH-22" value="&lt;font style=&quot;font-size: 8px;&quot; face=&quot;Courier New&quot;&gt;push imm32&lt;/font&gt;" style="rounded=0;whiteSpace=wrap;html=1;" vertex="1" parent="1">
          <mxGeometry x="340" y="370" width="50" height="20" as="geometry" />
        </mxCell>
        <mxCell id="RyVw2b3Zrki53a3tJyPH-23" value="&lt;font style=&quot;font-size: 8px;&quot; face=&quot;Courier New&quot;&gt;movabs rax, imm64&lt;/font&gt;" style="rounded=0;whiteSpace=wrap;html=1;" vertex="1" parent="1">
          <mxGeometry x="390" y="370" width="100" height="20" as="geometry" />
        </mxCell>
        <mxCell id="RyVw2b3Zrki53a3tJyPH-24" value="" style="rounded=0;whiteSpace=wrap;html=1;" vertex="1" parent="1">
          <mxGeometry x="490" y="370" width="10" height="20" as="geometry" />
        </mxCell>
        <mxCell id="RyVw2b3Zrki53a3tJyPH-27" style="edgeStyle=orthogonalEdgeStyle;rounded=0;orthogonalLoop=1;jettySize=auto;html=1;entryX=0.5;entryY=1;entryDx=0;entryDy=0;" edge="1" parent="1" source="RyVw2b3Zrki53a3tJyPH-25" target="RyVw2b3Zrki53a3tJyPH-24">
          <mxGeometry relative="1" as="geometry" />
        </mxCell>
        <mxCell id="RyVw2b3Zrki53a3tJyPH-25" value="&lt;font style=&quot;font-size: 8px;&quot;&gt;push rax&lt;/font&gt;" style="text;html=1;align=center;verticalAlign=middle;whiteSpace=wrap;rounded=0;" vertex="1" parent="1">
          <mxGeometry x="470" y="410" width="50" height="10" as="geometry" />
        </mxCell>
        <mxCell id="RyVw2b3Zrki53a3tJyPH-28" value="&lt;div&gt;&lt;font style=&quot;font-size: 8px;&quot;&gt;Instructions:&lt;/font&gt;&lt;/div&gt;" style="text;html=1;align=right;verticalAlign=middle;whiteSpace=wrap;rounded=0;" vertex="1" parent="1">
          <mxGeometry x="270" y="372.5" width="60" height="15" as="geometry" />
        </mxCell>
      </root>
    </mxGraphModel>
  </diagram>
</mxfile>
